<svg xmlns="http://www.w3.org/2000/svg" width="512" height="512" viewBox="0 0 64 64" style="enable-background:new 0 0 512 512" xml:space="preserve"><g xmlns="http://www.w3.org/2000/svg"><path d="m12 16 2.472 5.267 5.528.844-4 4.1.944 5.789L12 29.267 7.056 32 8 26.211l-4-4.1 5.528-.844z" fill="#fab400" data-original="#fab400"/><path d="M9.254 30.785 10 26.211l-4-4.1 5.528-.844L13 18.13 12 16l-2.472 5.267L4 22.111l4 4.1L7.056 32z" fill="#dc9600" data-original="#dc9600"/><path d="m52 16 2.472 5.267 5.528.844-4 4.1.944 5.789L52 29.267 47.056 32 48 26.211l-4-4.1 5.528-.844z" fill="#fab400" data-original="#fab400"/><path d="M49.254 30.785 50 26.211l-4-4.1 5.528-.844L53 18.13 52 16l-2.472 5.267-5.528.844 4 4.1L47.056 32z" fill="#dc9600" data-original="#dc9600"/><path d="m32 16 2.472 5.267 5.528.844-4 4.1.944 5.789L32 29.267 27.056 32 28 26.211l-4-4.1 5.528-.844z" fill="#fab400" data-original="#fab400"/><path d="M29.254 30.785 30 26.211l-4-4.1 5.528-.844L33 18.13 32 16l-2.472 5.267-5.528.844 4 4.1L27.056 32z" fill="#dc9600" data-original="#dc9600"/><path d="m22 32 2.472 5.267 5.528.844-4 4.1.944 5.789L22 45.267 17.056 48 18 42.211l-4-4.1 5.528-.844z" fill="#fab400" data-original="#fab400"/><path d="M19.254 46.785 20 42.211l-4-4.1 5.528-.844L23 34.13 22 32l-2.472 5.267-5.528.844 4 4.1L17.056 48z" fill="#dc9600" data-original="#dc9600"/><path d="m42 32 2.472 5.267 5.528.844-4 4.1.944 5.789L42 45.267 37.056 48 38 42.211l-4-4.1 5.528-.844z" fill="#fab400" data-original="#fab400"/><path d="M39.254 46.785 40 42.211l-4-4.1 5.528-.844L43 34.13 42 32l-2.472 5.267-5.528.844 4 4.1L37.056 48z" fill="#dc9600" data-original="#dc9600"/></g></svg>