<svg xmlns="http://www.w3.org/2000/svg" width="512" height="512" style="enable-background:new 0 0 512 512" xml:space="preserve"><linearGradient xmlns="http://www.w3.org/2000/svg" id="a" gradientUnits="userSpaceOnUse" x1="244.609" y1="248.323" x2="502.949" y2="-10.017" gradientTransform="matrix(1.0039 0 0 -1.0039 .192 516.56)"><stop offset="0" style="stop-color:#fff"/><stop offset="1" style="stop-color:#c3c3c3"/></linearGradient><path xmlns="http://www.w3.org/2000/svg" style="fill:url(#a)" d="M435.477 258.476c0 20.617-3.142 40.513-8.992 59.204a133.282 133.282 0 0 1-2.049 6.197 191.369 191.369 0 0 1-7.998 19.524A189 189 0 0 1 408.167 359a197.126 197.126 0 0 1-20.418 28.59 200.845 200.845 0 0 1-26.33 25.56c-34.042 27.41-77.325 43.829-124.445 43.829-109.628 0-198.503-88.875-198.503-198.503S127.344 59.973 236.973 59.973s198.504 88.875 198.504 198.503z"/><linearGradient xmlns="http://www.w3.org/2000/svg" id="b" gradientUnits="userSpaceOnUse" x1="315.918" y1="251.529" x2="103.742" y2="275.348" gradientTransform="matrix(1.0039 0 0 -1.0039 .192 516.56)"><stop offset="0" style="stop-color:#c3c3c3;stop-opacity:0"/><stop offset=".267" style="stop-color:#a4a4a4;stop-opacity:.267"/><stop offset=".542" style="stop-color:#8b8b8b;stop-opacity:.542"/><stop offset=".794" style="stop-color:#7c7c7c;stop-opacity:.794"/><stop offset="1" style="stop-color:#777"/></linearGradient><path xmlns="http://www.w3.org/2000/svg" style="fill:url(#b)" d="M236.973 123.992c-7.789 0-14.104 112.592-14.104 120.381 0 4.963 2.57 9.32 6.446 11.833l145.297 145.297c24.512-23.594 42.967-53.429 52.82-86.949-32.445-32.209-190.459-190.562-190.459-190.562z"/><linearGradient xmlns="http://www.w3.org/2000/svg" id="c" gradientUnits="userSpaceOnUse" x1="235.859" y1="262.543" x2="235.859" y2="229.192" gradientTransform="matrix(1.0039 0 0 -1.0039 .192 516.56)"><stop offset="0" style="stop-color:#f18d00"/><stop offset="1" style="stop-color:#ed7103"/></linearGradient><circle xmlns="http://www.w3.org/2000/svg" style="fill:url(#c)" cx="236.976" cy="258.479" r="11.218"/><linearGradient xmlns="http://www.w3.org/2000/svg" id="d" gradientUnits="userSpaceOnUse" x1="271.213" y1="279.83" x2="281.043" y2="248.87" gradientTransform="matrix(1.0039 0 0 -1.0039 .192 516.56)"><stop offset="0" style="stop-color:#a7f3ce"/><stop offset="1" style="stop-color:#61db99"/></linearGradient><path xmlns="http://www.w3.org/2000/svg" style="fill:url(#d)" d="M236.973 100.82a4.917 4.917 0 0 0-3.488 1.445 4.918 4.918 0 0 0-1.445 3.488v36.167a4.936 4.936 0 0 0 4.931 4.932 4.917 4.917 0 0 0 3.488-1.445 4.92 4.92 0 0 0 1.445-3.488v-36.167a4.931 4.931 0 0 0-4.931-4.932z"/><linearGradient xmlns="http://www.w3.org/2000/svg" id="e" gradientUnits="userSpaceOnUse" x1="193.858" y1="255.269" x2="203.688" y2="224.309" gradientTransform="matrix(1.0039 0 0 -1.0039 .192 516.56)"><stop offset="0" style="stop-color:#a7f3ce"/><stop offset="1" style="stop-color:#61db99"/></linearGradient><path xmlns="http://www.w3.org/2000/svg" style="fill:url(#e)" d="M236.973 370.102a4.932 4.932 0 0 0-4.932 4.932v36.167c0 .47.086.915.209 1.345.588 2.065 2.469 3.587 4.722 3.587a4.935 4.935 0 0 0 4.932-4.933v-36.167a4.93 4.93 0 0 0-4.931-4.931z"/><linearGradient xmlns="http://www.w3.org/2000/svg" id="f" gradientUnits="userSpaceOnUse" x1="349.604" y1="270.827" x2="395.454" y2="239.867" gradientTransform="matrix(1.0039 0 0 -1.0039 .192 516.56)"><stop offset="0" style="stop-color:#a7f3ce"/><stop offset="1" style="stop-color:#61db99"/></linearGradient><path xmlns="http://www.w3.org/2000/svg" style="fill:url(#f)" d="M389.697 253.545H353.53a4.932 4.932 0 1 0 0 9.864h36.167a4.932 4.932 0 1 0 0-9.864z"/><linearGradient xmlns="http://www.w3.org/2000/svg" id="g" gradientUnits="userSpaceOnUse" x1="81.374" y1="270.828" x2="127.225" y2="239.868" gradientTransform="matrix(1.0039 0 0 -1.0039 .192 516.56)"><stop offset="0" style="stop-color:#a7f3ce"/><stop offset="1" style="stop-color:#61db99"/></linearGradient><path xmlns="http://www.w3.org/2000/svg" style="fill:url(#g)" d="M125.348 258.476a4.936 4.936 0 0 0-4.932-4.932H84.248a4.917 4.917 0 0 0-3.488 1.445 4.932 4.932 0 0 0 3.487 8.42h36.167c1.362 0 2.595-.552 3.488-1.445s1.446-2.125 1.446-3.488z"/><linearGradient xmlns="http://www.w3.org/2000/svg" id="h" gradientUnits="userSpaceOnUse" x1="362.784" y1="323.761" x2="398.084" y2="292.801" gradientTransform="matrix(1.0039 0 0 -1.0039 .192 516.56)"><stop offset="0" style="stop-color:#a7f3ce"/><stop offset="1" style="stop-color:#61db99"/></linearGradient><path xmlns="http://www.w3.org/2000/svg" style="fill:url(#h)" d="m322.879 179.545 25.574-25.574a4.932 4.932 0 0 0-6.975-6.975l-25.574 25.574a4.932 4.932 0 0 0 6.975 6.975z"/><linearGradient xmlns="http://www.w3.org/2000/svg" id="i" gradientUnits="userSpaceOnUse" x1="79.097" y1="216.568" x2="114.387" y2="185.608" gradientTransform="matrix(1.0039 0 0 -1.0039 .192 516.56)"><stop offset="0" style="stop-color:#a7f3ce"/><stop offset="1" style="stop-color:#61db99"/></linearGradient><path xmlns="http://www.w3.org/2000/svg" style="fill:url(#i)" d="M158.041 337.408a4.932 4.932 0 0 0-6.975 0l-25.574 25.574a4.93 4.93 0 0 0-.677 6.116c.153.242.336.468.535.686.051.056.087.119.142.174a4.905 4.905 0 0 0 3.397 1.436c.03.001.06.009.09.009a4.92 4.92 0 0 0 3.488-1.445l25.574-25.574a4.903 4.903 0 0 0 1.444-3.487 4.907 4.907 0 0 0-1.444-3.489z"/><linearGradient xmlns="http://www.w3.org/2000/svg" id="j" gradientUnits="userSpaceOnUse" x1="268.762" y1="216.588" x2="304.042" y2="185.628" gradientTransform="matrix(1.0039 0 0 -1.0039 .192 516.56)"><stop offset="0" style="stop-color:#a7f3ce"/><stop offset="1" style="stop-color:#61db99"/></linearGradient><path xmlns="http://www.w3.org/2000/svg" style="fill:url(#j)" d="m348.453 362.981-25.574-25.574a4.882 4.882 0 0 0-2.088-1.219 4.947 4.947 0 0 0-2.251-.145 4.9 4.9 0 0 0-2.635 1.362 4.93 4.93 0 0 0 0 6.975l25.574 25.574c.289.289.61.52.945.722 1.896 1.146 4.393.916 6.031-.722a4.884 4.884 0 0 0 1.377-2.793c.209-1.48-.238-3.038-1.379-4.18z"/><linearGradient xmlns="http://www.w3.org/2000/svg" id="k" gradientUnits="userSpaceOnUse" x1="173.118" y1="323.766" x2="208.418" y2="292.806" gradientTransform="matrix(1.0039 0 0 -1.0039 .192 516.56)"><stop offset="0" style="stop-color:#a7f3ce"/><stop offset="1" style="stop-color:#61db99"/></linearGradient><path xmlns="http://www.w3.org/2000/svg" style="fill:url(#k)" d="M132.467 146.997a4.919 4.919 0 0 0-4.43-1.355 4.903 4.903 0 0 0-2.545 1.354 4.919 4.919 0 0 0-1.355 4.43 4.903 4.903 0 0 0 1.354 2.545l25.574 25.574c.044.044.096.073.142.115.45.418.951.749 1.49.968a4.933 4.933 0 0 0 1.856.361 4.919 4.919 0 0 0 3.488-1.445 4.907 4.907 0 0 0 1.444-3.487 4.919 4.919 0 0 0-1.445-3.488l-25.573-25.572z"/><linearGradient xmlns="http://www.w3.org/2000/svg" id="l" gradientUnits="userSpaceOnUse" x1="313.911" y1="211.314" x2="227.531" y2="306.194" gradientTransform="matrix(1.0039 0 0 -1.0039 .192 516.56)"><stop offset="0" style="stop-color:#c3c3c3;stop-opacity:0"/><stop offset=".267" style="stop-color:#a4a4a4;stop-opacity:.267"/><stop offset=".542" style="stop-color:#8b8b8b;stop-opacity:.542"/><stop offset=".794" style="stop-color:#7c7c7c;stop-opacity:.794"/><stop offset="1" style="stop-color:#777"/></linearGradient><path xmlns="http://www.w3.org/2000/svg" style="fill:url(#l)" d="M416.438 343.402a189 189 0 0 1-8.271 15.599 197.126 197.126 0 0 1-20.418 28.59 200.845 200.845 0 0 1-26.33 25.56L221.771 273.679c-8.408-8.396-8.408-22.008 0-30.404.372-.372.745-.721 1.142-1.056 8.047-7.004 20.07-7.004 28.118 0 .398.335.77.683 1.142 1.056.372.372.745.77 1.068 1.168h.012c.248.012.497.025.77.037.472.037.994.062 1.552.099 2.931.186 6.943.497 11.6.919 1.391.124 2.844.261 4.347.41 1.08.111 2.186.211 3.316.335.957.099 1.926.199 2.918.298.72.074 1.453.162 2.186.236 1.168.124 2.335.261 3.515.398 5.614.646 11.426 1.378 16.977 2.199.758.111 1.515.224 2.261.347.111.012.236.025.347.05.869.137 1.727.273 2.571.398.844.149 1.677.286 2.497.422.546.099 1.093.187 1.639.286.832.149 1.664.298 2.484.46.41.074.82.149 1.217.224.844.174 1.651.335 2.447.497.248.05.485.099.721.149.323.074.646.15.957.211.149.025.298.062.447.099.46.111.919.211 1.353.31.31.074.608.15.894.211 1.155.298 2.236.583 3.254.869.236.074.472.149.696.211.187.05.36.111.534.162.261.087.509.174.758.249.087.025.174.049.261.087.497.174.957.335 1.391.509.037.012.074.037.124.049.236.099.472.199.696.286.534.236 1.006.46 1.429.696.187.111.347.211.509.31.521.335.919.671 1.18 1.006a1.3 1.3 0 0 1 .199.273c.012.025.025.037.025.05.062.111.111.224.137.347.037.111.049.224.049.335l84.927 84.925z"/><linearGradient xmlns="http://www.w3.org/2000/svg" id="m" gradientUnits="userSpaceOnUse" x1="303.592" y1="262.181" x2=".302" y2="232.171" gradientTransform="matrix(1.0039 0 0 -1.0039 .192 516.56)"><stop offset="0" style="stop-color:#ffb92d"/><stop offset="1" style="stop-color:#f59500"/></linearGradient><path xmlns="http://www.w3.org/2000/svg" style="fill:url(#m)" d="M251.077 272.58c-7.789 0-14.104-6.315-14.104-14.104 0-7.789 6.315-14.104 14.104-14.104 7.789 0 80.429 6.315 80.429 14.104.001 7.79-72.64 14.104-80.429 14.104z"/><linearGradient xmlns="http://www.w3.org/2000/svg" id="n" gradientUnits="userSpaceOnUse" x1="264.133" y1="199.934" x2="294.143" y2="86.714" gradientTransform="matrix(1.0039 0 0 -1.0039 .192 516.56)"><stop offset="0" style="stop-color:#ffb92d"/><stop offset="1" style="stop-color:#f59500"/></linearGradient><path xmlns="http://www.w3.org/2000/svg" style="fill:url(#n)" d="M251.077 244.372c0 7.789-6.315 14.104-14.104 14.104s-14.104-6.315-14.104-14.104c0-7.789 6.315-120.381 14.104-120.381 7.789.001 14.104 112.592 14.104 120.381z"/><linearGradient xmlns="http://www.w3.org/2000/svg" id="o" gradientUnits="userSpaceOnUse" x1="235.859" y1="267.043" x2="235.859" y2="236.083" gradientTransform="matrix(1.0039 0 0 -1.0039 .192 516.56)"><stop offset="0" style="stop-color:#a7f3ce"/><stop offset="1" style="stop-color:#61db99"/></linearGradient><circle xmlns="http://www.w3.org/2000/svg" style="fill:url(#o)" cx="236.976" cy="258.479" r="21.504"/><linearGradient xmlns="http://www.w3.org/2000/svg" id="p" gradientUnits="userSpaceOnUse" x1="307.829" y1="98.373" x2="189.999" y2="216.203" gradientTransform="matrix(1.0039 0 0 -1.0039 .192 516.56)"><stop offset="0" style="stop-color:#c3c3c3;stop-opacity:0"/><stop offset=".267" style="stop-color:#a4a4a4;stop-opacity:.267"/><stop offset=".542" style="stop-color:#8b8b8b;stop-opacity:.542"/><stop offset=".794" style="stop-color:#7c7c7c;stop-opacity:.794"/><stop offset="1" style="stop-color:#777"/></linearGradient><path xmlns="http://www.w3.org/2000/svg" style="fill:url(#p)" d="M227.108 428.649c-6.123 8.057-9.184 16.304-9.184 24.739v2.678c6.269.597 12.621.914 19.048.914 47.12 0 90.403-16.419 124.445-43.829a200.845 200.845 0 0 0 26.33-25.56 196.525 196.525 0 0 0 9.222-11.616l-75.603-75.549c-11.729-10.459-25.944-15.687-42.644-15.687-15.763 0-29.321 4.644-40.672 13.932-11.355 9.288-17.029 21.251-17.029 35.887 0 7.248 1.943 12.106 5.801 14.61l42.835 43.049-19.926 14.504c-8.958 6.563-16.501 13.871-22.623 21.928z"/><g xmlns="http://www.w3.org/2000/svg"><linearGradient id="q" gradientUnits="userSpaceOnUse" x1="277.865" y1="173.762" x2="277.865" y2="54.873" gradientTransform="matrix(1.0039 0 0 -1.0039 .192 516.56)"><stop offset="0" style="stop-color:#62e1fb"/><stop offset="1" style="stop-color:#00a2f3"/></linearGradient><path style="fill:url(#q)" d="M217.925 480.656v-27.268c0-8.436 3.061-16.681 9.184-24.739 6.121-8.057 13.664-15.366 22.623-21.928l27.021-19.668c9.008-6.554 16.651-13.766 22.941-21.634 6.285-7.863 9.429-15.732 9.429-23.6 0-7.863-2.581-14.747-7.74-20.649-5.163-5.897-12.714-8.848-22.659-8.848-8.444 0-15.296 2.331-20.546 6.987-5.257 4.659-7.882 11.55-7.882 20.676 0 2.983-1.456 5.594-4.363 7.829-2.91 2.235-6.711 3.352-11.4 3.352-9.007 0-13.51-5.534-13.51-16.608 0-14.636 5.674-26.598 17.029-35.887 11.351-9.288 24.909-13.932 40.672-13.932 16.699 0 30.915 5.227 42.644 15.686 11.724 10.459 17.592 23.973 17.592 40.553 0 11.241-3.144 21.775-9.429 31.608-6.29 9.834-13.889 18.169-22.8 25.003a600.157 600.157 0 0 1-26.739 19.386c-8.915 6.087-16.513 12.222-22.799 18.402-6.29 6.184-9.429 12.178-9.429 17.983v10.674h82.752c2.626 0 4.925 1.267 6.896 3.8 1.971 2.534 2.957 5.587 2.957 9.149 0 3.567-.981 6.711-2.938 9.429-1.957 2.723-4.24 4.083-6.848 4.083h-99.519c-2.982 0-5.92-.938-8.804-2.811-2.892-1.874-4.335-4.214-4.335-7.028z"/><linearGradient id="r" gradientUnits="userSpaceOnUse" x1="406.416" y1="173.762" x2="406.416" y2="54.873" gradientTransform="matrix(1.0039 0 0 -1.0039 .192 516.56)"><stop offset="0" style="stop-color:#62e1fb"/><stop offset="1" style="stop-color:#00a2f3"/></linearGradient><path style="fill:url(#r)" d="M341.493 433.183c0-2.058.563-4.12 1.69-6.183l68.116-134.108c2.815-5.435 7.129-8.152 12.948-8.152 3.187 0 6.474 1.124 9.851 3.377 3.377 2.253 5.067 4.973 5.067 8.163 0 1.125-.472 2.629-1.409 4.504l-57.982 115.683h41.376v-39.066c0-6.607 4.969-9.909 14.918-9.909 4.125 0 7.643.853 10.555 2.551 2.907 1.698 4.363 4.151 4.363 7.359v39.066h13.792c3.188 0 5.672 1.395 7.458 4.183 1.781 2.788 2.674 6.039 2.674 9.75 0 3.342-1.034 6.456-3.097 9.332-2.066 2.88-4.411 4.319-7.036 4.319h-13.792v36.529c0 3.026-1.504 5.432-4.504 7.227-3.005 1.793-6.474 2.688-10.415 2.688-4.129 0-7.648-.893-10.555-2.688-2.912-1.795-4.363-4.201-4.363-7.227v-36.529h-69.241c-3.005 0-5.489-.972-7.458-2.924-1.97-1.954-2.956-4.602-2.956-7.945z"/></g><linearGradient xmlns="http://www.w3.org/2000/svg" id="s" gradientUnits="userSpaceOnUse" x1="303.096" y1="189.76" x2="416.316" y2="76.54" gradientTransform="matrix(1.0039 0 0 -1.0039 .192 516.56)"><stop offset="0" style="stop-color:#ffb92d"/><stop offset="1" style="stop-color:#f59500"/></linearGradient><path xmlns="http://www.w3.org/2000/svg" style="fill:url(#s)" d="M495.309 224.493h-23.811C454.964 109.869 356.102 21.505 236.973 21.505 106.305 21.505 0 127.809 0 258.476c0 53.917 18.597 106.688 52.365 148.591 33.259 41.272 79.869 70.515 131.243 82.344 1.406.325 2.811.479 4.196.479 8.483 0 16.153-5.834 18.138-14.453 2.308-10.027-3.948-20.025-13.976-22.333-43.272-9.964-82.546-34.615-110.59-69.414-28.862-35.815-44.117-79.112-44.117-125.212 0-110.123 89.591-199.713 199.714-199.713 98.54 0 180.628 71.738 196.808 165.729H414.13c-14.841 0-22.273 17.943-11.779 28.436l40.59 40.59c6.505 6.505 17.053 6.505 23.558 0l40.59-40.59c10.493-10.494 3.06-28.437-11.78-28.437z"/></svg>