<svg xmlns="http://www.w3.org/2000/svg" width="56" height="56" fill="none"><g fill="#28a8ea"><path d="M16.24 32.48c8.97 0 16.24-7.27 16.24-16.24S25.2 0 16.24 0 0 7.27 0 16.24s7.27 16.24 16.24 16.24zM39.76 56C48.73 56 56 48.73 56 39.76s-7.27-16.24-16.24-16.24-16.24 7.27-16.24 16.24S30.8 56 39.76 56z"/><path d="M28 54.88c14.845 0 26.88-12.035 26.88-26.88S42.845 1.12 28 1.12 1.12 13.155 1.12 28 13.155 54.88 28 54.88z"/></g><g fill-rule="evenodd"><path d="M21.03 27.5a8.17 8.17 0 0 1-2.562-2.705c-.613-1.148-.915-2.435-.878-3.736-.047-1.65.517-3.26 1.582-4.522a9.52 9.52 0 0 1 4.123-2.756c1.734-.612 3.56-.92 5.4-.908 1.203-.01 2.405.08 3.593.276.85.13 1.684.347 2.5.643a4.83 4.83 0 0 1 1.949 1.245 2.52 2.52 0 0 1 .602 1.674c.014.318-.034.636-.143.936s-.275.575-.5.8c-.204.217-.45.388-.725.502s-.57.17-.867.16c-.41-.003-.813-.094-1.184-.266-.914-.41-1.855-.753-2.817-1.03-.886-.233-1.8-.347-2.715-.337-1.193-.044-2.373.257-3.4.867a2.83 2.83 0 0 0-1.357 2.541c-.006.664.246 1.305.704 1.786a6.42 6.42 0 0 0 1.899 1.358l3.562 1.572c.175.055.346.123.5.204a25.29 25.29 0 0 1 4.409 2.266 8.89 8.89 0 0 1 2.715 2.786 7.35 7.35 0 0 1 .98 3.868 7.78 7.78 0 0 1-1.358 4.665 8.07 8.07 0 0 1-3.796 2.817c-1.83.653-3.763.968-5.705.93-2.67.094-5.326-.408-7.777-1.47a4.23 4.23 0 0 1-1.602-1.245 2.8 2.8 0 0 1-.521-1.694c-.018-.32.035-.64.152-.937s.3-.567.53-.788a2.52 2.52 0 0 1 1.766-.623c.72.01 1.427.192 2.06.53l1.868.888c.52.218 1.06.39 1.613.5a9.22 9.22 0 0 0 2.072.214 5.53 5.53 0 0 0 3.481-.929c.383-.3.7-.687.894-1.13s.3-.926.28-1.413a2.7 2.7 0 0 0-.735-1.858 7.81 7.81 0 0 0-2.164-1.572c-.953-.503-2.293-1.116-4.02-1.837a24.91 24.91 0 0 1-4.419-2.297" fill="#fff"/><g fill="#000"><path opacity=".1" d="M21.314.818a15.85 15.85 0 0 0-2.173-.56C14.72 1.677 10.7 4.13 7.414 7.414S1.677 14.72.258 19.14c.135.737.322 1.463.56 2.173.2.643.45 1.268.75 1.87A26.82 26.82 0 0 1 23.184 1.568a12.31 12.31 0 0 0-1.87-.75z"/><path opacity=".1" d="M21.314.818A28.02 28.02 0 0 0 .818 21.314a12.3 12.3 0 0 0 .75 1.87A26.82 26.82 0 0 1 23.184 1.568a12.33 12.33 0 0 0-1.87-.75zm33.868 33.868a12.54 12.54 0 0 0-.75-1.87 26.82 26.82 0 0 1-21.616 21.616 12.29 12.29 0 0 0 1.87.75c.7.238 1.436.425 2.173.56 4.422-1.42 8.442-3.873 11.726-7.157s5.738-7.304 7.157-11.726a15.87 15.87 0 0 0-.56-2.173z"/><path opacity=".1" d="M54.432 32.816a26.82 26.82 0 0 1-21.616 21.616 12.29 12.29 0 0 0 1.87.75 28.02 28.02 0 0 0 20.496-20.496c-.2-.643-.45-1.268-.75-1.87z"/></g></g></svg>