<svg xmlns="http://www.w3.org/2000/svg" width="56" height="56" fill="none"><rect width="56" height="56" rx="8" fill="#7360f2"/><path d="M42.837 12.225c-.974-.894-4.916-3.757-13.704-3.796 0 0-10.358-.627-15.408 4-2.812 2.808-3.8 6.9-3.903 12.008-.102 5.1-.236 14.635 8.976 17.223h.008l-.008 3.945s-.055 1.6.997 1.922c1.272.392 2.026-.824 3.243-2.133.668-.722 1.586-1.773 2.285-2.58 6.298.526 11.144-.682 11.693-.863 1.272-.416 8.474-1.333 9.644-10.878 1.2-9.82-.6-16.04-3.825-18.846zm1.068 18.156c-1 7.968-6.824 8.47-7.9 8.815-.456.15-4.712 1.208-10.068.855 0 0-4 4.808-5.23 6.055-.196.196-.424.275-.573.235-.212-.055-.275-.306-.267-.675l.03-6.565c-7.797-2.156-7.342-10.28-7.255-14.53s.887-7.74 3.267-10.086c4.264-3.86 13.068-3.286 13.068-3.286 7.43.03 10.987 2.267 11.8 3.012 2.74 2.353 4.14 7.96 3.118 16.172zm-11.15-5.663a.5.5 0 0 1-.495-.471c-.086-1.686-.88-2.5-2.497-2.596a.5.5 0 0 1-.471-.525.5.5 0 0 1 .526-.471c2.136.118 3.33 1.34 3.44 3.537a.49.49 0 0 1-.471.518c-.016.008-.024.008-.03.008zm2.544.847h.002a.5.5 0 0 1-.487-.51c.04-1.694-.448-3.067-1.484-4.196-1.03-1.13-2.45-1.74-4.327-1.874-.275-.023-.48-.26-.456-.533s.26-.48.534-.455c2.12.157 3.793.894 4.987 2.196 1.2 1.3 1.783 2.95 1.743 4.886-.008.274-.236.486-.503.486zm2.606 1.02a.49.49 0 0 1-.495-.494c-.024-3.035-.895-5.35-2.67-7.082-1.75-1.7-3.974-2.58-6.6-2.604a.5.5 0 0 1-.495-.502.5.5 0 0 1 .495-.494c2.882.024 5.332.988 7.272 2.886 1.948 1.898 2.945 4.517 2.976 7.78a.49.49 0 0 1-.495.51zM29.88 30.86s.7.063 1.076-.4l.73-.918c.353-.455 1.2-.745 2.042-.282a20.7 20.7 0 0 1 1.822 1.16l1.696 1.357c.542.455.667 1.122.298 1.835-.377.682-.887 1.3-1.523 1.9-.542.447-1.06.698-1.563.753-.063.016-.133.016-.228.016a2.14 2.14 0 0 1-.66-.102l-.016-.023c-.785-.22-2.1-.77-4.256-1.97-1.413-.776-2.584-1.57-3.58-2.36a18.33 18.33 0 0 1-1.61-1.427l-.22-.22a19.72 19.72 0 0 1-1.429-1.608c-.793-.988-1.586-2.165-2.364-3.576-1.202-2.172-1.75-3.474-1.97-4.25l-.023-.016a2.16 2.16 0 0 1-.102-.66c0-.094 0-.165.016-.227.063-.5.314-1.02.746-1.545.6-.66 1.217-1.16 1.885-1.537.723-.37 1.4-.243 1.853.298l1.36 1.694c.385.525.903 1.357 1.162 1.82.463.83.173 1.686-.283 2.04l-.92.73c-.463.376-.4 1.074-.4 1.074s1.36 5.16 6.463 6.455z" fill="#fff"/></svg>