<svg width="145" height="145" viewBox="0 0 145 145" fill="none" xmlns="http://www.w3.org/2000/svg">
<g filter="url(#filter0_ddi)">
<g clip-path="url(#clip0)">
<path d="M104.817 51.2H40.0165C38.1676 51.1992 36.3914 51.9197 35.0655 53.2083C33.7395 54.4968 32.9686 56.2518 32.9165 58.1V95.1C32.9428 96.9656 33.7024 98.7459 35.0311 100.056C36.3597 101.366 38.1507 102.1 40.0165 102.1H65.3165L70.4165 110.4C70.6354 110.73 70.9326 111.001 71.2816 111.188C71.6306 111.375 72.0205 111.473 72.4165 111.473C72.8126 111.473 73.2024 111.375 73.5514 111.188C73.9004 111.001 74.1976 110.73 74.4165 110.4L79.5165 102.1H104.817C106.682 102.1 108.473 101.366 109.802 100.056C111.131 98.7459 111.89 96.9656 111.917 95.1V58.1C111.864 56.2518 111.093 54.4968 109.768 53.2083C108.442 51.9197 106.665 51.1992 104.817 51.2V51.2Z" fill="#FF7C48"/>
<path d="M79.5165 102.1H104.817C106.682 102.1 108.473 101.366 109.802 100.056C111.131 98.7459 111.89 96.9656 111.917 95.0999V58.1C111.864 56.2518 111.093 54.4968 109.768 53.2083C108.442 51.9197 106.665 51.1992 104.817 51.2H72.4165V111.5C72.815 111.497 73.2065 111.395 73.5556 111.203C73.9048 111.011 74.2007 110.735 74.4165 110.4L79.5165 102.1Z" fill="#FF415B"/>
<path d="M59.6165 90.4L53.9165 87.4L48.1165 90.4C47.7371 90.5918 47.3119 90.6746 46.8882 90.6393C46.4646 90.604 46.059 90.4519 45.7165 90.2C45.3721 89.9342 45.1065 89.5798 44.9479 89.1747C44.7894 88.7696 44.744 88.329 44.8165 87.9L45.9165 81.5L41.3165 77C40.9837 76.7312 40.7458 76.3628 40.6378 75.9488C40.5298 75.5349 40.5574 75.0972 40.7165 74.7C40.8162 74.2809 41.0424 73.9026 41.3644 73.6164C41.6864 73.3301 42.0886 73.1499 42.5165 73.1L48.9165 72.1L51.8165 66.3C52.0432 65.9492 52.3541 65.6607 52.7209 65.4609C53.0878 65.2612 53.4988 65.1565 53.9165 65.1565C54.3342 65.1565 54.7453 65.2612 55.1121 65.4609C55.4789 65.6607 55.7899 65.9492 56.0165 66.3L58.8165 72.1L65.2165 73.1C65.6575 73.1443 66.0749 73.3207 66.4139 73.6062C66.753 73.8917 66.9979 74.273 67.1165 74.7C67.2473 75.1006 67.2602 75.5303 67.1539 75.938C67.0475 76.3458 66.8263 76.7144 66.5165 77L61.9165 81.5L63.0165 87.9C63.0903 88.3391 63.0351 88.7901 62.8576 89.1983C62.6801 89.6066 62.3879 89.9546 62.0165 90.2C61.674 90.4519 61.2685 90.604 60.8448 90.6393C60.4211 90.6746 59.996 90.5918 59.6165 90.4V90.4Z" fill="#FFEB3A"/>
<path d="M96.7163 90.4L90.9163 87.4L85.2163 90.4C84.8252 90.5842 84.3916 90.6594 83.9614 90.6175C83.5311 90.5757 83.1202 90.4184 82.7719 90.1624C82.4236 89.9063 82.151 89.5609 81.9828 89.1627C81.8146 88.7645 81.7571 88.3282 81.8163 87.9L82.9163 81.5L78.3163 77C78.0065 76.7144 77.7853 76.3458 77.6789 75.938C77.5725 75.5303 77.5855 75.1006 77.7163 74.7C77.8349 74.273 78.0798 73.8917 78.4189 73.6062C78.7579 73.3207 79.1753 73.1443 79.6163 73.1L86.0163 72.1L88.8163 66.3C89.0429 65.9492 89.3538 65.6607 89.7207 65.4609C90.0875 65.2612 90.4986 65.1565 90.9163 65.1565C91.334 65.1565 91.745 65.2612 92.1118 65.4609C92.4787 65.6607 92.7896 65.9492 93.0163 66.3L95.9163 72.1L102.316 73.1C102.744 73.1499 103.146 73.3301 103.468 73.6164C103.79 73.9026 104.017 74.2809 104.116 74.7C104.275 75.0972 104.303 75.5349 104.195 75.9488C104.087 76.3628 103.849 76.7312 103.516 77L98.9163 81.5L100.016 87.9C100.089 88.329 100.043 88.7696 99.8848 89.1747C99.7263 89.5798 99.4606 89.9342 99.1163 90.2C98.7738 90.4519 98.3682 90.604 97.9445 90.6393C97.5209 90.6746 97.0957 90.5918 96.7163 90.4V90.4Z" fill="#FFDC00"/>
<path d="M90.5165 45.3C90.4168 44.8809 90.1907 44.5026 89.8687 44.2164C89.5467 43.9301 89.1444 43.7499 88.7165 43.7L78.9165 42.2L74.5165 33.7C74.309 33.3249 74.0047 33.0122 73.6354 32.7945C73.2661 32.5767 72.8452 32.4619 72.4165 32.4619C71.9878 32.4619 71.5669 32.5767 71.1976 32.7945C70.8283 33.0122 70.5241 33.3249 70.3165 33.7L65.9165 42.2L56.1165 43.7C55.6886 43.7499 55.2864 43.9301 54.9644 44.2164C54.6424 44.5026 54.4162 44.8809 54.3165 45.3C54.1735 45.6914 54.1446 46.1153 54.2331 46.5225C54.3216 46.9297 54.5239 47.3034 54.8165 47.6L61.9165 54.6L60.3165 64.3C60.2323 64.7293 60.2722 65.1737 60.4316 65.5811C60.591 65.9885 60.8633 66.3419 61.2165 66.6C61.559 66.8519 61.9646 67.0039 62.3883 67.0393C62.8119 67.0746 63.2371 66.9917 63.6165 66.8L72.4165 62.2L81.2165 66.8C81.596 66.9917 82.0211 67.0746 82.4448 67.0393C82.8685 67.0039 83.274 66.8519 83.6165 66.6C83.9697 66.3419 84.242 65.9885 84.4014 65.5811C84.5608 65.1737 84.6008 64.7293 84.5165 64.3L82.9165 54.6L90.0165 47.6C90.3091 47.3034 90.5115 46.9297 90.6 46.5225C90.6885 46.1153 90.6595 45.6914 90.5165 45.3V45.3Z" fill="#FFDC00"/>
<path d="M83.6165 66.6C83.9697 66.3419 84.242 65.9884 84.4014 65.581C84.5608 65.1736 84.6007 64.7292 84.5165 64.3L82.9165 54.6L90.0165 47.6C90.3091 47.3033 90.5114 46.9296 90.6 46.5225C90.6885 46.1153 90.6595 45.6913 90.5165 45.3C90.4168 44.8809 90.1906 44.5025 89.8687 44.2163C89.5467 43.9301 89.1444 43.7498 88.7165 43.7L78.9165 42.2L74.5165 33.7C74.304 33.3319 73.9977 33.0269 73.6287 32.8161C73.2598 32.6053 72.8414 32.4962 72.4165 32.5V62.2L81.2165 66.8C81.5959 66.9917 82.0211 67.0745 82.4448 67.0392C82.8684 67.0039 83.274 66.8519 83.6165 66.6V66.6Z" fill="#FEC108"/>
</g>
<rect x="13.1665" y="12.5" width="119" height="119" rx="59.5" stroke="#F5F5F5"/>
</g>
<defs>
<filter id="filter0_ddi" x="0.666504" y="0" width="144" height="145" filterUnits="userSpaceOnUse" color-interpolation-filters="sRGB">
<feFlood flood-opacity="0" result="BackgroundImageFix"/>
<feColorMatrix in="SourceAlpha" type="matrix" values="0 0 0 0 0 0 0 0 0 0 0 0 0 0 0 0 0 0 127 0" result="hardAlpha"/>
<feOffset dy="1"/>
<feGaussianBlur stdDeviation="6"/>
<feColorMatrix type="matrix" values="0 0 0 0 0.116667 0 0 0 0 0.116181 0 0 0 0 0.116181 0 0 0 0.05 0"/>
<feBlend mode="normal" in2="BackgroundImageFix" result="effect1_dropShadow"/>
<feColorMatrix in="SourceAlpha" type="matrix" values="0 0 0 0 0 0 0 0 0 0 0 0 0 0 0 0 0 0 127 0" result="hardAlpha"/>
<feOffset/>
<feGaussianBlur stdDeviation="6"/>
<feColorMatrix type="matrix" values="0 0 0 0 0.1 0 0 0 0 0.0966667 0 0 0 0 0.0966667 0 0 0 0.1 0"/>
<feBlend mode="normal" in2="effect1_dropShadow" result="effect2_dropShadow"/>
<feBlend mode="normal" in="SourceGraphic" in2="effect2_dropShadow" result="shape"/>
<feColorMatrix in="SourceAlpha" type="matrix" values="0 0 0 0 0 0 0 0 0 0 0 0 0 0 0 0 0 0 127 0" result="hardAlpha"/>
<feOffset dy="3"/>
<feGaussianBlur stdDeviation="2.5"/>
<feComposite in2="hardAlpha" operator="arithmetic" k2="-1" k3="1"/>
<feColorMatrix type="matrix" values="0 0 0 0 0 0 0 0 0 0 0 0 0 0 0 0 0 0 0.107111 0"/>
<feBlend mode="normal" in2="shape" result="effect3_innerShadow"/>
</filter>
<clipPath id="clip0">
<rect width="80" height="80" fill="white" transform="translate(32.4165 32)"/>
</clipPath>
</defs>
</svg>
