<svg width="144" height="145" viewBox="0 0 144 145" fill="none" xmlns="http://www.w3.org/2000/svg">
<g filter="url(#filter0_ddi)">
<g clip-path="url(#clip0)">
<path d="M64.9498 90.9V95.5C64.9498 100.8 57.8498 104.7 48.6498 104.7C39.4498 104.7 32.2498 100.8 32.2498 95.5V90.9H64.9498Z" fill="#FEA832"/>
<path d="M64.9487 90.9V95.5C64.9487 100.8 57.8487 104.7 48.6487 104.7V90.9H64.9487Z" fill="#FE9923"/>
<path d="M64.9498 86.2V90.9C64.9498 96.1 57.8498 100.1 48.6498 100.1C39.4498 100.1 32.2498 96.1 32.2498 90.9V86.2H64.9498Z" fill="#FEA832"/>
<path d="M64.9487 86.2V90.9C64.9487 96.1 57.8487 100.1 48.6487 100.1V86.2H64.9487Z" fill="#FE9923"/>
<path d="M64.9498 86.2V90.9C64.9498 96.1 57.8498 100.1 48.6498 100.1C39.4498 100.1 32.2498 96.1 32.2498 90.9V86.2H64.9498Z" fill="#FEDB41"/>
<path d="M64.9487 86.2V90.9C64.9487 96.1 57.8487 100.1 48.6487 100.1V86.2H64.9487Z" fill="#FFCC33"/>
<path d="M64.9498 81.6V86.2C64.9498 91.5 57.8498 95.5 48.6498 95.5C39.4498 95.5 32.2498 91.5 32.2498 86.2V81.6H64.9498Z" fill="#FEA832"/>
<path d="M64.9487 81.6V86.2C64.9487 91.5 57.8487 95.5 48.6487 95.5V81.6H64.9487Z" fill="#FE9923"/>
<path d="M64.9498 77V81.6C64.9498 86.9 57.8498 90.9 48.6498 90.9C39.4498 90.9 32.2498 86.9 32.2498 81.6V77H64.9498Z" fill="#FEDB41"/>
<path d="M64.9487 77V81.6C64.9487 86.9 57.8487 90.9 48.6487 90.9V77H64.9487Z" fill="#FFCC33"/>
<path d="M64.9498 72.3V77C64.9498 82.3 57.8498 86.2001 48.6498 86.2001C39.4498 86.2001 32.2498 82.3 32.2498 77V72.3H64.9498Z" fill="#FEA832"/>
<path d="M64.9487 72.3V77C64.9487 82.3 57.8487 86.2001 48.6487 86.2001V72.3H64.9487Z" fill="#FE9923"/>
<path d="M64.9498 67.7V72.2999C64.9498 77.5999 57.8498 81.5999 48.6498 81.5999C39.4498 81.5999 32.2498 77.5999 32.2498 72.2999V67.7H64.9498Z" fill="#FEDB41"/>
<path d="M64.9487 67.7V72.2999C64.9487 77.5999 57.8487 81.5999 48.6487 81.5999V67.7H64.9487Z" fill="#FFCC33"/>
<path d="M64.9498 63.1V67.7C64.9498 73 57.8498 77 48.6498 77C39.4498 77 32.2498 73 32.2498 67.7V63.1H64.9498Z" fill="#FEA832"/>
<path d="M64.9487 63.1V67.7C64.9487 73 57.8487 77 48.6487 77V63.1H64.9487Z" fill="#FE9923"/>
<path d="M64.9498 58.5V63.1C64.9498 68.4 57.8498 72.3 48.6498 72.3C39.4498 72.3 32.2498 68.4 32.2498 63.1V58.5H64.9498Z" fill="#FEDB41"/>
<path d="M64.9487 58.5V63.1C64.9487 68.4 57.8487 72.3 48.6487 72.3V58.5H64.9487Z" fill="#FFCC33"/>
<path d="M64.9498 53.8V58.5C64.9498 63.7 57.8498 67.7001 48.6498 67.7001C39.4498 67.7001 32.2498 63.7 32.2498 58.5V53.8H64.9498Z" fill="#FEA832"/>
<path d="M64.9487 53.8V58.5C64.9487 63.7 57.8487 67.7001 48.6487 67.7001V53.8H64.9487Z" fill="#FE9923"/>
<path d="M64.9498 49.2V53.8C64.9498 59.1 57.8498 63.1 48.6498 63.1C39.4498 63.1 32.2498 59.1 32.2498 53.8V49.2H64.9498Z" fill="#FEDB41"/>
<path d="M64.9487 49.2V53.8C64.9487 59.1 57.8487 63.1 48.6487 63.1V49.2H64.9487Z" fill="#FFCC33"/>
<path d="M64.9498 44.6V49.2C64.9498 54.5 57.8498 58.5 48.6498 58.5C39.4498 58.5 32.2498 54.5 32.2498 49.2V44.6H64.9498Z" fill="#FEA832"/>
<path d="M64.9487 44.6V49.2C64.9487 54.5 57.8487 58.5 48.6487 58.5V44.6H64.9487Z" fill="#FE9923"/>
<path d="M48.6498 35.3C39.3498 35.3 32.2498 39.3 32.2498 44.6C32.2498 49.9 39.3498 53.8 48.6498 53.8C57.9498 53.8 64.9498 49.9 64.9498 44.6C64.9498 39.3 57.8498 35.3 48.6498 35.3Z" fill="#FEDB41"/>
<path d="M64.9487 44.6C64.9487 49.9 57.8487 53.8 48.6487 53.8V35.3C57.8487 35.3 64.9487 39.3 64.9487 44.6Z" fill="#FFCC33"/>
<path d="M97.3502 90.9V95.5C97.3502 100.8 90.4502 104.7 81.1502 104.7C71.8502 104.7 64.9502 100.8 64.9502 95.5V90.9H97.3502Z" fill="#FEA832"/>
<path d="M97.3487 90.9V95.5C97.3487 100.8 90.4487 104.7 81.1487 104.7V90.9H97.3487Z" fill="#FE9923"/>
<path d="M97.3502 86.2V90.9C97.3502 96.1 90.4502 100.1 81.1502 100.1C71.8502 100.1 64.9502 96.1 64.9502 90.9V86.2H97.3502Z" fill="#FEDB41"/>
<path d="M97.3487 86.2V90.9C97.3487 96.1 90.4487 100.1 81.1487 100.1V86.2H97.3487Z" fill="#FFCC33"/>
<path d="M97.3502 81.6V86.2C97.3502 91.5 90.4502 95.5 81.1502 95.5C71.8502 95.5 64.9502 91.5 64.9502 86.2V81.6H97.3502Z" fill="#FEA832"/>
<path d="M97.3487 81.6V86.2C97.3487 91.5 90.4487 95.5 81.1487 95.5V81.6H97.3487Z" fill="#FE9923"/>
<path d="M97.3502 77V81.6C97.3502 86.9 90.4502 90.9 81.1502 90.9C71.8502 90.9 64.9502 86.9 64.9502 81.6V77H97.3502Z" fill="#FEDB41"/>
<path d="M97.3487 77V81.6C97.3487 86.9 90.4487 90.9 81.1487 90.9V77H97.3487Z" fill="#FFCC33"/>
<path d="M97.3502 72.3V77C97.3502 82.3 90.4502 86.2001 81.1502 86.2001C71.8502 86.2001 64.9502 82.3 64.9502 77V72.3H97.3502Z" fill="#FEA832"/>
<path d="M97.3487 72.3V77C97.3487 82.3 90.4487 86.2001 81.1487 86.2001V72.3H97.3487Z" fill="#FE9923"/>
<path d="M97.3502 67.7V72.2999C97.3502 77.5999 90.4502 81.5999 81.1502 81.5999C71.8502 81.5999 64.9502 77.5999 64.9502 72.2999V67.7H97.3502Z" fill="#FEDB41"/>
<path d="M97.3487 67.7V72.2999C97.3487 77.5999 90.4487 81.5999 81.1487 81.5999V67.7H97.3487Z" fill="#FFCC33"/>
<path d="M97.3502 63.1V67.7C97.3502 73 90.4502 77 81.1502 77C71.8502 77 64.9502 73 64.9502 67.7V63.1H97.3502Z" fill="#FEA832"/>
<path d="M97.3487 63.1V67.7C97.3487 73 90.4487 77 81.1487 77V63.1H97.3487Z" fill="#FE9923"/>
<path d="M97.3502 58.5V63.1C97.3502 68.4 90.4502 72.3 81.1502 72.3C71.8502 72.3 64.9502 68.4 64.9502 63.1V58.5H97.3502Z" fill="#FEDB41"/>
<path d="M97.3487 58.5V63.1C97.3487 68.4 90.4487 72.3 81.1487 72.3V58.5H97.3487Z" fill="#FFCC33"/>
<path d="M97.3502 53.8V58.5C97.3502 63.7 90.4502 67.7001 81.1502 67.7001C71.8502 67.7001 64.9502 63.7 64.9502 58.5V53.8H97.3502Z" fill="#FEA832"/>
<path d="M97.3487 53.8V58.5C97.3487 63.7 90.4487 67.7001 81.1487 67.7001V53.8H97.3487Z" fill="#FE9923"/>
<path d="M81.1502 44.6C71.9502 44.6 64.9502 48.6 64.9502 53.8C64.9502 59 71.9502 63.1 81.1502 63.1C90.3502 63.1 97.3502 59.1 97.3502 53.8C97.3502 48.5 90.4502 44.6 81.1502 44.6Z" fill="#FEDB41"/>
<path d="M97.3487 53.8C97.3487 59.1 90.4487 63.1 81.1487 63.1V44.6C90.4487 44.6 97.3487 48.6 97.3487 53.8Z" fill="#FFCC33"/>
<path d="M92.7498 71.7C89.0908 71.7 85.514 72.785 82.4717 74.8178C79.4294 76.8506 77.0582 79.7399 75.658 83.1203C74.2578 86.5007 73.8914 90.2205 74.6052 93.8091C75.3191 97.3978 77.081 100.694 79.6683 103.281C82.2556 105.869 85.5519 107.631 89.1406 108.344C92.7292 109.058 96.449 108.692 99.8294 107.292C103.21 105.892 106.099 103.52 108.132 100.478C110.165 97.4357 111.25 93.8589 111.25 90.2C111.25 85.2934 109.301 80.5879 105.831 77.1185C102.362 73.6491 97.6563 71.7 92.7498 71.7Z" fill="#FEA832"/>
<path d="M111.25 90.1999C111.25 92.6294 110.771 95.0351 109.842 97.2796C108.912 99.5241 107.549 101.564 105.831 103.281C104.113 104.999 102.074 106.362 99.8294 107.292C97.5849 108.221 95.1792 108.7 92.7498 108.7V71.7C97.6563 71.7 102.362 73.649 105.831 77.1185C109.301 80.5879 111.25 85.2934 111.25 90.1999Z" fill="#FE9923"/>
<path d="M92.7508 76.3C90.0017 76.3 87.3143 77.1153 85.0284 78.6426C82.7426 80.17 80.961 82.3409 79.9089 84.8807C78.8569 87.4206 78.5816 90.2155 79.1179 92.9118C79.6543 95.6081 80.9781 98.0849 82.9221 100.029C84.866 101.973 87.3427 103.297 90.0391 103.833C92.7354 104.369 95.5302 104.094 98.0701 103.042C100.61 101.99 102.781 100.208 104.308 97.9225C105.836 95.6366 106.651 92.9492 106.651 90.2001C106.651 86.5135 105.186 82.978 102.58 80.3713C99.9729 77.7645 96.4373 76.3 92.7508 76.3Z" fill="#FEDB41"/>
<path d="M106.65 90.2001C106.624 93.8785 105.151 97.3988 102.55 99.9999C99.9485 102.601 96.4282 104.074 92.7498 104.1V76.3C96.4363 76.3 99.9718 77.7645 102.579 80.3713C105.185 82.978 106.65 86.5135 106.65 90.2001Z" fill="#FFCC33"/>
</g>
<rect x="12.4998" y="12.5" width="119" height="119" rx="59.5" stroke="#F5F5F5"/>
</g>
<defs>
<filter id="filter0_ddi" x="-0.000244141" y="0" width="144" height="145" filterUnits="userSpaceOnUse" color-interpolation-filters="sRGB">
<feFlood flood-opacity="0" result="BackgroundImageFix"/>
<feColorMatrix in="SourceAlpha" type="matrix" values="0 0 0 0 0 0 0 0 0 0 0 0 0 0 0 0 0 0 127 0" result="hardAlpha"/>
<feOffset dy="1"/>
<feGaussianBlur stdDeviation="6"/>
<feColorMatrix type="matrix" values="0 0 0 0 0.116667 0 0 0 0 0.116181 0 0 0 0 0.116181 0 0 0 0.05 0"/>
<feBlend mode="normal" in2="BackgroundImageFix" result="effect1_dropShadow"/>
<feColorMatrix in="SourceAlpha" type="matrix" values="0 0 0 0 0 0 0 0 0 0 0 0 0 0 0 0 0 0 127 0" result="hardAlpha"/>
<feOffset/>
<feGaussianBlur stdDeviation="6"/>
<feColorMatrix type="matrix" values="0 0 0 0 0.1 0 0 0 0 0.0966667 0 0 0 0 0.0966667 0 0 0 0.1 0"/>
<feBlend mode="normal" in2="effect1_dropShadow" result="effect2_dropShadow"/>
<feBlend mode="normal" in="SourceGraphic" in2="effect2_dropShadow" result="shape"/>
<feColorMatrix in="SourceAlpha" type="matrix" values="0 0 0 0 0 0 0 0 0 0 0 0 0 0 0 0 0 0 127 0" result="hardAlpha"/>
<feOffset dy="3"/>
<feGaussianBlur stdDeviation="2.5"/>
<feComposite in2="hardAlpha" operator="arithmetic" k2="-1" k3="1"/>
<feColorMatrix type="matrix" values="0 0 0 0 0 0 0 0 0 0 0 0 0 0 0 0 0 0 0.107111 0"/>
<feBlend mode="normal" in2="shape" result="effect3_innerShadow"/>
</filter>
<clipPath id="clip0">
<rect width="80" height="80" fill="white" transform="translate(31.7498 32)"/>
</clipPath>
</defs>
</svg>
