<svg width="145" height="145" viewBox="0 0 145 145" fill="none" xmlns="http://www.w3.org/2000/svg">
<g filter="url(#filter0_ddi)">
<g clip-path="url(#clip0)">
<path d="M62.2847 35.1999L65.3847 41.6999C65.5578 42.0456 65.8119 42.3443 66.1253 42.5706C66.4387 42.797 66.8021 42.9442 67.1847 42.9999L74.0847 44.0999C74.5291 44.1762 74.943 44.3761 75.2791 44.6768C75.6151 44.9775 75.8597 45.3667 75.9847 45.7999C76.0919 46.2183 76.0932 46.6569 75.9884 47.0759C75.8837 47.4949 75.6762 47.8812 75.3847 48.1999L70.3847 53.2999C70.1008 53.5628 69.8878 53.8931 69.7654 54.2602C69.6431 54.6273 69.6153 55.0193 69.6847 55.3999L70.8847 62.4999C70.9937 62.9308 70.9756 63.384 70.8325 63.8047C70.6894 64.2255 70.4274 64.5957 70.0784 64.8708C69.7293 65.1458 69.308 65.3138 68.8654 65.3545C68.4229 65.3952 67.978 65.3067 67.5847 65.0999L61.2847 61.6999C60.9539 61.5539 60.5963 61.4785 60.2347 61.4785C59.8731 61.4785 59.5155 61.5539 59.1847 61.6999L52.9847 65.0999C52.5852 65.292 52.1404 65.3698 51.6995 65.3245C51.2585 65.2792 50.8388 65.1128 50.4867 64.8435C50.1346 64.5743 49.8639 64.2128 49.7047 63.7991C49.5455 63.3854 49.504 62.9358 49.5847 62.4999L50.7847 55.3999C50.8541 55.0193 50.8263 54.6273 50.7039 54.2602C50.5816 53.8931 50.3686 53.5628 50.0847 53.2999L45.1847 48.1999C44.8556 47.9062 44.6224 47.5202 44.5154 47.0923C44.4084 46.6643 44.4325 46.214 44.5847 45.7999C44.6857 45.3544 44.9229 44.9513 45.2633 44.6467C45.6038 44.342 46.0307 44.1509 46.4847 44.0999L53.2847 42.9999C53.6701 42.9528 54.0372 42.8088 54.3519 42.5815C54.6667 42.3542 54.9188 42.0509 55.0847 41.6999L58.1847 35.1999C58.3601 34.7873 58.6524 34.4349 59.0255 34.1862C59.3986 33.9374 59.8363 33.8032 60.2847 33.7999C60.7258 33.7797 61.1613 33.9061 61.5231 34.1594C61.8849 34.4126 62.1527 34.7785 62.2847 35.1999V35.1999Z" fill="#FFEB3A"/>
<path d="M75.3831 48.1999C75.6746 47.8812 75.8821 47.4949 75.9868 47.0758C76.0916 46.6568 76.0903 46.2183 75.9831 45.7999C75.8581 45.3667 75.6135 44.9774 75.2775 44.6767C74.9414 44.3761 74.5275 44.1762 74.0831 44.0999L67.1831 42.9999C66.8005 42.9442 66.4371 42.7969 66.1237 42.5706C65.8103 42.3442 65.5562 42.0455 65.3831 41.6999L62.2831 35.1999C62.1224 34.8167 61.8609 34.4841 61.5263 34.2376C61.1918 33.9911 60.7967 33.8398 60.3831 33.7999C59.9581 33.7961 59.5398 33.9052 59.1709 34.116C58.8019 34.3269 58.4955 34.6319 58.2831 34.9999C58.2831 35.0999 58.3831 35.0999 58.3831 35.1999L61.4831 41.6999C61.6399 42.0381 61.8765 42.3332 62.1727 42.5597C62.4688 42.7861 62.8156 42.9372 63.1831 42.9999L70.0831 44.0999C70.5275 44.1762 70.9414 44.3761 71.2775 44.6767C71.6135 44.9774 71.8581 45.3667 71.9831 45.7999C72.1104 46.2167 72.1218 46.6603 72.0161 47.0832C71.9104 47.506 71.6916 47.892 71.3831 48.1999L66.4831 53.2999C66.1824 53.55 65.9576 53.8792 65.8339 54.2502C65.7102 54.6212 65.6926 55.0194 65.7831 55.3999L66.8831 62.4999C66.9787 62.8481 66.983 63.2151 66.8954 63.5655C66.8078 63.9158 66.6314 64.2377 66.3831 64.4999L67.5831 65.0999C67.9764 65.3067 68.4213 65.3951 68.8638 65.3544C69.3064 65.3138 69.7277 65.1458 70.0768 64.8707C70.4258 64.5957 70.6878 64.2254 70.8309 63.8047C70.974 63.3839 70.9921 62.9307 70.8831 62.4999L69.6831 55.3999C69.6137 55.0192 69.6415 54.6272 69.7638 54.2602C69.8862 53.8931 70.0992 53.5628 70.3831 53.2999L75.3831 48.1999Z" fill="#FDD834"/>
<path d="M101.485 76.8999L95.2847 83.0999C94.9394 83.4701 94.6868 83.9169 94.5478 84.4036C94.4087 84.8904 94.3871 85.4032 94.4847 85.8999L95.2847 90.5999L91.6847 93.4999C91.4456 92.6186 90.9258 91.8392 90.204 91.2798C89.4823 90.7204 88.5978 90.4115 87.6847 90.3999H74.1847C73.6387 90.435 73.1005 90.2556 72.6847 89.8999C71.9789 89.34 71.2063 88.8697 70.3847 88.4999L70.7847 85.8999C70.8824 85.4032 70.8608 84.8904 70.7217 84.4036C70.5826 83.9169 70.33 83.4701 69.9847 83.0999L63.7847 76.8999C63.3602 76.5171 63.0539 76.021 62.9018 75.47C62.7497 74.919 62.7583 74.336 62.9264 73.7897C63.0945 73.2433 63.4152 72.7564 63.8507 72.3862C64.2862 72.0159 64.8184 71.7778 65.3847 71.6999L73.9847 70.3999C74.4614 70.3151 74.9104 70.1162 75.2936 69.8202C75.6767 69.5241 75.9824 69.1398 76.1847 68.6999L80.0847 60.4999C80.2843 59.9995 80.629 59.5702 81.0745 59.2672C81.52 58.9643 82.046 58.8015 82.5847 58.7999C83.1375 58.795 83.6794 58.9538 84.1421 59.2563C84.6048 59.5588 84.9676 59.9915 85.1847 60.4999L89.0847 68.6999C89.287 69.1398 89.5928 69.5241 89.9759 69.8202C90.359 70.1162 90.8081 70.3151 91.2847 70.3999L99.8847 71.6999C100.451 71.7778 100.983 72.0159 101.419 72.3862C101.854 72.7564 102.175 73.2433 102.343 73.7897C102.511 74.336 102.52 74.919 102.368 75.47C102.216 76.021 101.909 76.5171 101.485 76.8999V76.8999Z" fill="#FFDC00"/>
<path d="M99.8837 71.7L91.2837 70.4C90.8071 70.3152 90.358 70.1163 89.9749 69.8202C89.5918 69.5242 89.286 69.1398 89.0837 68.7L85.1837 60.5C85.0089 60.0886 84.7346 59.727 84.3855 59.4477C84.0364 59.1685 83.6235 58.9803 83.1837 58.9C82.7335 58.7996 82.2647 58.8208 81.8254 58.9613C81.386 59.1019 80.992 59.3569 80.6837 59.7L81.2837 60.5L85.1837 68.7C85.386 69.1398 85.6918 69.5242 86.0749 69.8202C86.458 70.1163 86.9071 70.3152 87.3837 70.4L95.9837 71.7C96.5271 71.795 97.0322 72.0431 97.4395 72.415C97.8469 72.787 98.1398 73.2674 98.2837 73.8C98.469 74.3304 98.5017 74.9022 98.3779 75.4503C98.2542 75.9984 97.979 76.5007 97.5837 76.9L91.3837 83.1C91.0503 83.4804 90.7984 83.9251 90.6436 84.4067C90.4888 84.8883 90.4344 85.3965 90.4837 85.9L91.2837 90.6L90.2837 91.4C90.976 91.92 91.4699 92.6609 91.6837 93.5L95.2837 90.6L94.4837 85.9C94.3861 85.4033 94.4077 84.8905 94.5468 84.4037C94.6858 83.917 94.9384 83.4702 95.2837 83.1L101.484 76.9C101.908 76.5172 102.215 76.0211 102.367 75.4701C102.519 74.9191 102.51 74.3361 102.342 73.7897C102.174 73.2434 101.853 72.7564 101.418 72.3862C100.982 72.016 100.45 71.7779 99.8837 71.7Z" fill="#FEC108"/>
<path d="M94.385 37.1999L96.185 41.0999C96.2738 41.2954 96.4135 41.4634 96.5894 41.5866C96.7653 41.7097 96.971 41.7834 97.185 41.7999L101.185 42.3999C101.449 42.4341 101.695 42.5483 101.892 42.7272C102.089 42.906 102.226 43.1408 102.285 43.3999C102.386 43.6521 102.411 43.9282 102.358 44.1945C102.305 44.4608 102.175 44.7059 101.985 44.8999L99.085 47.7999C98.9206 47.9697 98.7987 48.176 98.7292 48.402C98.6597 48.6279 98.6446 48.867 98.685 49.0999L99.385 53.1999C99.4305 53.4566 99.4083 53.7207 99.3207 53.9662C99.233 54.2117 99.0828 54.4301 98.885 54.5999C98.6704 54.7575 98.4153 54.8506 98.1496 54.8683C97.8839 54.886 97.6187 54.8276 97.385 54.6999L93.785 52.6999C93.5997 52.6035 93.3939 52.5532 93.185 52.5532C92.9761 52.5532 92.7703 52.6035 92.585 52.6999L88.885 54.6999C88.6707 54.8323 88.4202 54.8939 88.1689 54.8759C87.9176 54.858 87.6784 54.7614 87.485 54.5999C87.2872 54.4301 87.1371 54.2117 87.0494 53.9662C86.9617 53.7207 86.9395 53.4566 86.985 53.1999L87.685 49.0999C87.7268 48.6309 87.5833 48.1642 87.285 47.7999L84.385 44.8999C84.204 44.6996 84.0734 44.4591 84.0038 44.1982C83.9343 43.9374 83.9278 43.6637 83.985 43.3999C84.0738 43.1566 84.2202 42.9386 84.4118 42.7644C84.6034 42.5902 84.8344 42.4651 85.085 42.3999L89.085 41.7999C89.3163 41.8017 89.5432 41.7365 89.7384 41.6123C89.9335 41.4881 90.0886 41.3102 90.185 41.0999L91.985 37.1999C92.0837 36.963 92.2504 36.7606 92.4639 36.6182C92.6775 36.4759 92.9284 36.3999 93.185 36.3999C93.4417 36.3999 93.6926 36.4759 93.9061 36.6182C94.1197 36.7606 94.2863 36.963 94.385 37.1999V37.1999Z" fill="#FF9801"/>
<path d="M101.984 44.8999C102.174 44.7059 102.303 44.4608 102.357 44.1945C102.41 43.9282 102.385 43.6521 102.284 43.3999C102.225 43.1408 102.087 42.906 101.891 42.7272C101.694 42.5484 101.447 42.4341 101.184 42.3999L97.1837 41.7999C96.9697 41.7834 96.764 41.7097 96.5881 41.5866C96.4122 41.4634 96.2725 41.2954 96.1837 41.0999L94.3837 37.1999C94.285 36.963 94.1184 36.7606 93.9048 36.6182C93.6913 36.4759 93.4404 36.3999 93.1837 36.3999C92.9271 36.3999 92.6762 36.4759 92.4626 36.6182C92.2491 36.7606 92.0824 36.963 91.9837 37.1999L91.1837 38.7999L92.2837 41.0999C92.3497 41.3106 92.4836 41.4936 92.6645 41.6202C92.8454 41.7468 93.0631 41.81 93.2837 41.7999L97.2837 42.3999C97.5343 42.4651 97.7653 42.5902 97.9569 42.7644C98.1485 42.9386 98.295 43.1567 98.3837 43.3999C98.4409 43.6637 98.4345 43.9374 98.3649 44.1982C98.2954 44.4591 98.1647 44.6996 97.9837 44.8999L95.0837 47.7999C94.9295 47.9745 94.8213 48.1849 94.7689 48.4119C94.7165 48.6389 94.7216 48.8754 94.7837 49.0999L95.3837 53.1999C95.4633 53.3172 95.4987 53.4589 95.4837 53.5999L97.3837 54.6999C97.6174 54.8276 97.8826 54.886 98.1483 54.8683C98.414 54.8506 98.6691 54.7575 98.8837 54.5999C99.0815 54.4301 99.2317 54.2117 99.3194 53.9662C99.407 53.7207 99.4292 53.4566 99.3837 53.1999L98.6837 49.0999C98.6432 48.867 98.6584 48.6279 98.7279 48.402C98.7974 48.176 98.9193 47.9698 99.0837 47.7999L101.984 44.8999Z" fill="#F57C00"/>
<path d="M109.084 89.3L92.684 106C92.2376 106.48 91.6955 106.862 91.0927 107.12C90.49 107.379 89.8398 107.508 89.184 107.5H65.384C63.7092 107.581 62.0566 107.918 60.484 108.5L56.284 110.2H33.884V107.5C33.884 107.5 40.484 102.3 43.084 99.6C53.684 89.1 61.484 87.8 66.784 87.8C68.9343 87.7968 71.0193 88.5389 72.684 89.9C73.0998 90.2557 73.638 90.4351 74.184 90.4H87.684C88.5971 90.4116 89.4816 90.7205 90.2034 91.2799C90.9251 91.8393 91.4449 92.6187 91.684 93.5L95.284 90.6L103.684 83.5C104.474 82.9447 105.439 82.6943 106.4 82.795C107.361 82.8956 108.252 83.3405 108.911 84.0475C109.569 84.7545 109.949 85.6758 109.981 86.6413C110.013 87.6068 109.694 88.5511 109.084 89.3Z" fill="#FFE0B2"/>
<path d="M109.284 84C108.695 83.2773 107.868 82.7893 106.95 82.6242C106.033 82.4591 105.087 82.6279 104.284 83.1C104.715 83.3108 105.092 83.6189 105.384 84C106.003 84.7554 106.325 85.7115 106.288 86.6879C106.252 87.6643 105.859 88.5935 105.184 89.3L88.6837 106C88.2454 106.491 87.7049 106.879 87.1002 107.138C86.4955 107.398 85.8413 107.521 85.1837 107.5H89.1837C89.8395 107.508 90.4896 107.379 91.0924 107.12C91.6952 106.862 92.2373 106.48 92.6837 106L109.084 89.3C109.779 88.6046 110.186 87.6721 110.223 86.6892C110.26 85.7064 109.925 84.7459 109.284 84V84Z" fill="#DFC49C"/>
<path d="M49.1837 54.2C49.321 54.3229 49.4216 54.4813 49.4746 54.6577C49.5275 54.8342 49.5307 55.0218 49.4837 55.2L48.2837 62.3C48.1802 63.019 48.2745 63.7526 48.5564 64.422C48.8383 65.0915 49.2971 65.6716 49.8837 66.1C50.4199 66.4762 51.051 66.6944 51.7051 66.7298C52.3592 66.7651 53.0101 66.6162 53.5837 66.3L59.7837 62.9C59.9098 62.7942 60.0691 62.7362 60.2337 62.7362C60.3983 62.7362 60.5576 62.7942 60.6837 62.9L66.8837 66.3C67.4758 66.6139 68.1421 66.7612 68.8114 66.7259C69.4807 66.6907 70.1278 66.4744 70.6837 66.1C71.2792 65.6838 71.739 65.1015 72.0057 64.4258C72.2725 63.75 72.3344 63.0107 72.1837 62.3L70.9837 55.2C70.9764 54.8434 71.0813 54.4936 71.2837 54.2L76.2837 49.2C76.7545 48.681 77.0844 48.05 77.242 47.3673C77.3995 46.6845 77.3795 45.9728 77.1837 45.3C76.9954 44.6466 76.6209 44.0622 76.1059 43.6183C75.5909 43.1743 74.9577 42.89 74.2837 42.8L67.3837 41.7C66.9837 41.7 66.7837 41.4 66.5837 41.1L63.4837 34.6C63.2118 33.977 62.7645 33.4467 62.1962 33.0738C61.628 32.7009 60.9634 32.5015 60.2837 32.5C59.5898 32.4947 58.9091 32.6901 58.3236 33.0627C57.7382 33.4353 57.2728 33.9691 56.9837 34.6L53.8837 41.1C53.8246 41.2679 53.7171 41.4145 53.5747 41.5213C53.4323 41.6281 53.2615 41.6903 53.0837 41.7L46.2837 42.8C45.6003 42.8955 44.9572 43.1802 44.427 43.622C43.8969 44.0637 43.5009 44.645 43.2837 45.3C43.088 45.9728 43.0679 46.6845 43.2255 47.3673C43.383 48.05 43.7129 48.681 44.1837 49.2L49.1837 54.2ZM45.7837 46.1C45.9837 45.7 46.2837 45.4 46.5837 45.4L53.4837 44.3C54.0775 44.2183 54.6426 43.9937 55.1304 43.6453C55.6181 43.2969 56.0139 42.8352 56.2837 42.3L59.3837 35.7C59.4604 35.5242 59.586 35.3742 59.7456 35.2678C59.9052 35.1614 60.092 35.1032 60.2837 35.1C60.4615 35.1097 60.6323 35.1718 60.7747 35.2786C60.9171 35.3854 61.0247 35.5321 61.0837 35.7L64.2837 42.3C64.5299 42.8331 64.9062 43.2957 65.378 43.6452C65.8499 43.9947 66.402 44.2199 66.9837 44.3L73.8837 45.4C74.0797 45.3984 74.2693 45.4689 74.4168 45.5979C74.5643 45.7269 74.6592 45.9056 74.6837 46.1C74.7373 46.3092 74.738 46.5284 74.6856 46.738C74.6332 46.9475 74.5295 47.1406 74.3837 47.3L69.4837 52.3C69.0509 52.7227 68.7253 53.2427 68.534 53.8167C68.3426 54.3907 68.2911 55.0021 68.3837 55.6L69.5837 62.8C69.6273 63.0024 69.6129 63.213 69.5422 63.4076C69.4714 63.6022 69.3472 63.7729 69.1837 63.9C69.0342 63.988 68.8673 64.0424 68.6947 64.0597C68.5221 64.077 68.3477 64.0566 68.1837 64L61.9837 60.6C61.4669 60.3016 60.8805 60.1445 60.2837 60.1445C59.6869 60.1445 59.1006 60.3016 58.5837 60.6L52.2837 64C52.1412 64.0762 51.9789 64.1074 51.8182 64.0896C51.6575 64.0717 51.5061 64.0056 51.3837 63.9C51.1918 63.7963 51.0391 63.6326 50.9488 63.434C50.8585 63.2354 50.8357 63.0128 50.8837 62.8L52.0837 55.7C52.182 55.0945 52.1431 54.4748 51.9701 53.8864C51.797 53.2979 51.4941 52.7558 51.0837 52.3L46.0837 47.3C45.938 47.1406 45.8342 46.9475 45.7818 46.738C45.7295 46.5284 45.7301 46.3092 45.7837 46.1V46.1Z" fill="black"/>
<path d="M86.2831 48.7C86.3096 48.7 86.3351 48.7105 86.3538 48.7293C86.3726 48.748 86.3831 48.7735 86.3831 48.8L85.6831 53C85.5756 53.5084 85.623 54.0374 85.8191 54.5187C86.0151 54.9999 86.3509 55.4114 86.7831 55.7C87.1818 55.9977 87.6575 56.1749 88.1538 56.2103C88.6501 56.2458 89.1462 56.1381 89.5831 55.9L93.1831 53.9L96.7831 55.9C97.22 56.1381 97.7161 56.2458 98.2124 56.2103C98.7088 56.1749 99.1845 55.9977 99.5831 55.7C99.9967 55.3944 100.318 54.9807 100.512 54.5044C100.706 54.0282 100.765 53.5076 100.683 53L99.9831 48.8L102.883 45.9C103.252 45.5254 103.511 45.0577 103.635 44.5469C103.758 44.0361 103.74 43.5014 103.583 43C103.402 42.5363 103.104 42.1272 102.719 41.8119C102.333 41.4967 101.873 41.2859 101.383 41.2L97.3831 40.6L95.5831 36.7C95.3857 36.2262 95.0524 35.8214 94.6253 35.5366C94.1982 35.2519 93.6964 35.1 93.1831 35.1C92.6698 35.1 92.168 35.2519 91.7409 35.5366C91.3138 35.8214 90.9805 36.2262 90.7831 36.7L88.9831 40.5L84.8831 41.1C84.3915 41.1912 83.9348 41.4171 83.564 41.7526C83.1932 42.088 82.9229 42.5199 82.7831 43C82.6323 43.4787 82.6083 43.9884 82.7134 44.4792C82.8186 44.97 83.0493 45.4251 83.3831 45.8L86.2831 48.7ZM85.2831 43.7L89.2831 43.1C89.7306 43.0451 90.1571 42.8791 90.5239 42.6171C90.8907 42.3551 91.1861 42.0054 91.3831 41.6L93.1831 37.8L94.9831 41.6C95.1636 41.9979 95.4414 42.344 95.791 42.6061C96.1406 42.8683 96.5506 43.0381 96.9831 43.1L101.083 43.7V43.9L98.1831 46.9C97.8639 47.2043 97.6241 47.5821 97.4846 48.0005C97.3452 48.4189 97.3103 48.865 97.3831 49.3L98.0831 53.4V53.6L94.3831 51.6C94.0108 51.3589 93.5767 51.2306 93.1331 51.2306C92.6896 51.2306 92.2555 51.3589 91.8831 51.6L88.2831 53.6V53.4L88.9831 49.3C89.0326 48.8658 88.9867 48.4261 88.8485 48.0115C88.7103 47.597 88.4832 47.2176 88.1831 46.9L85.2831 43.9L84.3831 44.9L85.2831 43.7Z" fill="black"/>
<path d="M33.8841 108.9C34.2075 108.893 34.5213 108.789 34.7841 108.6C34.9841 108.4 41.3841 103.2 44.0841 100.6C54.3841 90.3 61.9841 89.1 66.7841 89.1C68.6116 89.0876 70.3838 89.7256 71.7841 90.9C72.1239 91.1972 72.5211 91.4216 72.9511 91.5592C73.3811 91.6968 73.8348 91.7447 74.2841 91.7H87.6841C88.3775 91.696 89.0478 91.9494 89.565 92.4113C90.0823 92.8731 90.4098 93.5105 90.4841 94.2C90.5117 94.5578 90.4649 94.9176 90.3467 95.2565C90.2284 95.5954 90.0413 95.9061 89.7971 96.1691C89.5528 96.4322 89.2568 96.6418 88.9275 96.7848C88.5983 96.9278 88.243 97.001 87.8841 97H73.3841C73.0393 97 72.7086 97.1369 72.4648 97.3807C72.2211 97.6245 72.0841 97.9552 72.0841 98.3C72.0841 98.6448 72.2211 98.9754 72.4648 99.2192C72.7086 99.463 73.0393 99.6 73.3841 99.6H87.8841C88.594 99.6125 89.2986 99.4766 89.953 99.2011C90.6073 98.9256 91.1969 98.5165 91.6841 98C92.1827 97.4877 92.5656 96.8746 92.8071 96.2018C93.0486 95.5291 93.1431 94.8123 93.0841 94.1V94.1L104.584 84.5C104.831 84.2575 105.132 84.0768 105.462 83.9725C105.792 83.8683 106.143 83.8434 106.484 83.9C106.831 83.9107 107.172 83.9968 107.483 84.1522C107.794 84.3076 108.067 84.5286 108.284 84.8C108.713 85.3072 108.94 85.9549 108.922 86.6191C108.904 87.2833 108.641 87.9174 108.184 88.4L91.7841 105.1C91.4472 105.449 91.0432 105.726 90.5964 105.915C90.1496 106.104 89.6692 106.201 89.1841 106.2H65.3841C63.5303 106.218 61.6972 106.591 59.9841 107.3L55.7841 109C55.4658 109.133 55.2133 109.386 55.082 109.705C54.9507 110.024 54.9515 110.382 55.0841 110.7C55.1497 110.858 55.2458 111.001 55.3668 111.121C55.4877 111.242 55.6313 111.337 55.7891 111.402C55.947 111.467 56.1161 111.5 56.2868 111.5C56.4575 111.5 56.6265 111.466 56.7841 111.4L60.9841 109.7C62.3946 109.185 63.8826 108.914 65.3841 108.9H89.1841C90.8533 108.824 92.429 108.107 93.5841 106.9L110.084 90.2C111.011 89.2165 111.536 87.921 111.555 86.5694C111.573 85.2178 111.084 83.9085 110.184 82.9C109.265 81.8943 107.994 81.2812 106.634 81.1881C105.275 81.095 103.932 81.529 102.884 82.4L96.1841 88.1L95.7841 85.7C95.7314 85.4127 95.7494 85.117 95.8365 84.8382C95.9236 84.5595 96.0772 84.3061 96.2841 84.1L102.384 77.8C102.967 77.2047 103.377 76.4623 103.571 75.6522C103.764 74.842 103.734 73.9945 103.484 73.2C103.228 72.457 102.778 71.7962 102.18 71.2862C101.582 70.7762 100.858 70.4357 100.084 70.3L91.4841 69C91.2193 68.9792 90.9659 68.8836 90.7534 68.7242C90.5409 68.5649 90.3781 68.3484 90.2841 68.1L86.3841 59.9C86.0629 59.1733 85.5375 58.5556 84.8717 58.122C84.206 57.6884 83.4286 57.4575 82.6341 57.4575C81.8396 57.4575 81.0622 57.6884 80.3965 58.122C79.7307 58.5556 79.2053 59.1733 78.8841 59.9L74.9841 68.1C74.8728 68.3366 74.7053 68.5424 74.4961 68.6993C74.2869 68.8562 74.0424 68.9594 73.7841 69L65.1841 70.3C64.41 70.4357 63.6864 70.7762 63.0885 71.2862C62.4906 71.7962 62.0402 72.457 61.7841 73.2C61.5338 73.9945 61.5039 74.842 61.6976 75.6522C61.8913 76.4623 62.3014 77.2047 62.8841 77.8L68.9841 84C69.1782 84.2146 69.3235 84.4688 69.4098 84.7451C69.4961 85.0213 69.5215 85.313 69.4841 85.6L69.2841 86.8C68.4665 86.5961 67.6267 86.4953 66.7841 86.5C61.4841 86.5 53.1841 87.7 42.1841 98.7C39.294 101.463 36.2562 104.066 33.0841 106.5C32.8769 106.683 32.7283 106.923 32.6571 107.189C32.586 107.456 32.5953 107.738 32.6841 108C32.7781 108.248 32.9409 108.465 33.1534 108.624C33.3659 108.784 33.6193 108.879 33.8841 108.9V108.9ZM70.8841 82.2L64.6841 75.9C64.4701 75.6586 64.3211 75.3667 64.2511 75.0517C64.1811 74.7368 64.1925 74.4093 64.2841 74.1C64.3752 73.8128 64.5456 73.5572 64.7756 73.3626C65.0056 73.168 65.2858 73.0423 65.5841 73L74.1841 71.7C74.8612 71.5599 75.499 71.2722 76.0521 70.8574C76.6053 70.4425 77.0601 69.9108 77.3841 69.3L81.2841 61.1C81.3681 60.8177 81.5389 60.5692 81.7723 60.3897C82.0057 60.2101 82.2898 60.1088 82.5841 60.1C82.8955 60.0871 83.2022 60.1784 83.4558 60.3595C83.7094 60.5407 83.8953 60.8012 83.9841 61.1L87.8841 69.3C88.1899 69.9244 88.6394 70.4674 89.1956 70.8846C89.7518 71.3018 90.399 71.5812 91.0841 71.7L99.6841 73C99.9824 73.0423 100.263 73.168 100.493 73.3626C100.723 73.5572 100.893 73.8128 100.984 74.1C101.076 74.4093 101.087 74.7368 101.017 75.0517C100.947 75.3667 100.798 75.6586 100.584 75.9L94.3841 82.2C93.8767 82.6998 93.5015 83.3178 93.292 83.9986C93.0826 84.6793 93.0455 85.4014 93.1841 86.1L93.7841 90L92.1841 91.4C91.6613 90.6964 90.9834 90.1229 90.2029 89.724C89.4225 89.3251 88.5605 89.1115 87.6841 89.1H74.2841L73.4841 88.9L71.7841 87.8L72.0841 86.1C72.1976 85.4014 72.1483 84.6861 71.9402 84.0096C71.732 83.3332 71.3706 82.7139 70.8841 82.2V82.2Z" fill="black"/>
</g>
<rect x="12.8334" y="12.5" width="119" height="119" rx="59.5" stroke="#F5F5F5"/>
</g>
<defs>
<filter id="filter0_ddi" x="0.333374" y="0" width="144" height="145" filterUnits="userSpaceOnUse" color-interpolation-filters="sRGB">
<feFlood flood-opacity="0" result="BackgroundImageFix"/>
<feColorMatrix in="SourceAlpha" type="matrix" values="0 0 0 0 0 0 0 0 0 0 0 0 0 0 0 0 0 0 127 0" result="hardAlpha"/>
<feOffset dy="1"/>
<feGaussianBlur stdDeviation="6"/>
<feColorMatrix type="matrix" values="0 0 0 0 0.116667 0 0 0 0 0.116181 0 0 0 0 0.116181 0 0 0 0.05 0"/>
<feBlend mode="normal" in2="BackgroundImageFix" result="effect1_dropShadow"/>
<feColorMatrix in="SourceAlpha" type="matrix" values="0 0 0 0 0 0 0 0 0 0 0 0 0 0 0 0 0 0 127 0" result="hardAlpha"/>
<feOffset/>
<feGaussianBlur stdDeviation="6"/>
<feColorMatrix type="matrix" values="0 0 0 0 0.1 0 0 0 0 0.0966667 0 0 0 0 0.0966667 0 0 0 0.1 0"/>
<feBlend mode="normal" in2="effect1_dropShadow" result="effect2_dropShadow"/>
<feBlend mode="normal" in="SourceGraphic" in2="effect2_dropShadow" result="shape"/>
<feColorMatrix in="SourceAlpha" type="matrix" values="0 0 0 0 0 0 0 0 0 0 0 0 0 0 0 0 0 0 127 0" result="hardAlpha"/>
<feOffset dy="3"/>
<feGaussianBlur stdDeviation="2.5"/>
<feComposite in2="hardAlpha" operator="arithmetic" k2="-1" k3="1"/>
<feColorMatrix type="matrix" values="0 0 0 0 0 0 0 0 0 0 0 0 0 0 0 0 0 0 0.107111 0"/>
<feBlend mode="normal" in2="shape" result="effect3_innerShadow"/>
</filter>
<clipPath id="clip0">
<rect width="80" height="80" fill="white" transform="translate(32.0834 32)"/>
</clipPath>
</defs>
</svg>
